<?xml version="1.0" standalone="no"?>
<!DOCTYPE svg PUBLIC "-//W3C//DTD SVG 20010904//EN"
 "http://www.w3.org/TR/2001/REC-SVG-20010904/DTD/svg10.dtd">
<svg version="1.0" xmlns="http://www.w3.org/2000/svg"
 width="180.000000pt" height="180.000000pt" viewBox="0 0 180.000000 180.000000"
 preserveAspectRatio="xMidYMid meet">
<metadata>
Created by potrace 1.14, written by Peter Selinger 2001-2017
</metadata>
<g transform="translate(0.000000,180.000000) scale(0.100000,-0.100000)"
fill="#000000" stroke="none">
<path d="M863 1715 c-29 -8 -71 -24 -92 -35 -25 -12 -41 -16 -43 -9 -6 17 -70
26 -113 15 -51 -12 -133 -63 -168 -106 -26 -31 -29 -32 -47 -15 -51 46 -111
-37 -88 -122 8 -30 6 -36 -32 -72 -34 -32 -40 -44 -35 -63 7 -22 18 -34 39
-41 5 -2 2 -22 -7 -44 -19 -48 -22 -103 -9 -155 16 -64 67 -161 103 -198 19
-20 47 -53 62 -73 35 -46 98 -79 143 -75 28 2 38 -2 52 -24 9 -14 27 -40 39
-56 l23 -30 -68 -10 c-91 -14 -181 -49 -215 -85 -15 -16 -32 -48 -38 -71 -10
-38 -15 -43 -84 -75 l-74 -34 17 -25 c35 -54 177 -163 277 -212 135 -67 239
-92 385 -93 63 -1 131 1 150 5 166 28 321 100 448 207 l53 45 -25 15 c-14 9
-31 31 -37 51 -26 78 -89 144 -186 192 -59 29 -61 31 -49 52 12 18 21 63 52
236 3 19 8 73 10 120 5 106 5 110 16 110 4 0 8 21 8 46 0 51 -17 73 -57 74
-21 0 -29 15 -24 44 1 4 -4 14 -10 22 -6 8 -9 14 -5 14 3 0 1 11 -4 24 -8 22
-5 27 24 46 35 21 59 64 59 103 -1 56 -5 69 -33 101 -17 19 -44 38 -61 41 -28
6 -29 9 -25 47 6 53 -8 81 -54 107 -31 17 -54 21 -131 20 -52 0 -118 -7 -146
-14z m428 -636 c3 -19 8 -39 11 -45 4 -5 3 -16 -1 -22 -5 -8 -12 3 -20 30 -7
24 -15 51 -18 62 -3 12 -1 17 8 14 8 -3 16 -20 20 -39z"/>
</g>
</svg>
